<svg width="261" height="274" viewBox="0 0 261 274" fill="none" xmlns="http://www.w3.org/2000/svg">
<g filter="url(#filter0_d_1812_34)">
<rect width="214.316" height="207.488" rx="103.744" transform="matrix(-0.949425 0.313995 0.271974 0.962304 204 7)" fill="white"/>
</g>
<path d="M118.318 0.0664686C117.787 0.114751 116.098 0.283739 114.578 0.404444C79.5212 3.56693 46.6837 22.4936 25.8858 51.5836C14.3046 67.7582 6.89742 86.1054 4.09863 105.539C3.10941 112.323 2.98877 114.326 2.98877 123.524C2.98877 132.722 3.10941 134.726 4.09863 141.509C10.8061 187.884 43.7884 226.848 88.5207 241.285C96.5311 243.868 104.976 245.63 114.578 246.692C118.318 247.103 134.484 247.103 138.223 246.692C154.799 244.857 168.841 240.753 182.69 233.68C184.814 232.594 185.224 232.304 184.934 232.063C184.741 231.918 175.693 219.775 164.836 205.097L145.1 178.421L120.369 141.799C106.761 121.665 95.566 105.201 95.4694 105.201C95.3729 105.177 95.2764 121.448 95.2282 141.316C95.1558 176.104 95.1317 177.504 94.6974 178.325C94.0701 179.507 93.5875 179.99 92.5741 180.521C91.8021 180.908 91.1265 180.98 87.4833 180.98H83.3092L82.1993 180.28C81.4755 179.821 80.9447 179.218 80.5828 178.518L80.0761 177.431L80.1244 129.028L80.1967 80.6013L80.9447 79.6598C81.3307 79.1528 82.1511 78.501 82.7301 78.1871C83.7194 77.7043 84.1054 77.656 88.2795 77.656C93.2015 77.656 94.0218 77.8492 95.3006 79.2494C95.6625 79.6356 109.053 99.8176 125.074 124.128C141.095 148.438 163.002 181.632 173.763 197.927L193.306 227.548L194.296 226.896C203.054 221.199 212.319 213.088 219.654 204.638C235.264 186.702 245.325 164.83 248.703 141.509C249.692 134.726 249.813 132.722 249.813 123.524C249.813 114.326 249.692 112.323 248.703 105.539C241.996 59.1639 209.013 20.2002 164.281 5.76377C156.391 3.20481 147.995 1.44251 138.585 0.380303C136.269 0.138892 120.321 -0.12666 118.318 0.0664686ZM168.841 74.7591C169.999 75.3385 170.94 76.449 171.278 77.6078C171.471 78.2354 171.519 91.6579 171.471 121.907L171.399 165.312L163.75 153.58L156.078 141.847V110.295C156.078 89.8956 156.174 78.4286 156.319 77.8733C156.705 76.5214 157.549 75.4592 158.708 74.8315C159.697 74.3246 160.059 74.2763 163.847 74.2763C167.418 74.2763 168.045 74.3246 168.841 74.7591Z" fill="black"/>
<defs>
<filter id="filter0_d_1812_34" x="-3.47705" y="7" width="267.909" height="274.961" filterUnits="userSpaceOnUse" color-interpolation-filters="sRGB">
<feFlood flood-opacity="0" result="BackgroundImageFix"/>
<feColorMatrix in="SourceAlpha" type="matrix" values="0 0 0 0 0 0 0 0 0 0 0 0 0 0 0 0 0 0 127 0" result="hardAlpha"/>
<feOffset dy="4"/>
<feGaussianBlur stdDeviation="2"/>
<feComposite in2="hardAlpha" operator="out"/>
<feColorMatrix type="matrix" values="0 0 0 0 0 0 0 0 0 0 0 0 0 0 0 0 0 0 0.25 0"/>
<feBlend mode="normal" in2="BackgroundImageFix" result="effect1_dropShadow_1812_34"/>
<feBlend mode="normal" in="SourceGraphic" in2="effect1_dropShadow_1812_34" result="shape"/>
</filter>
</defs>
</svg>
